PathFileType  4	(X/Y/Z) C:\Users\antoi\Documents\MyRepositories\mobilecap\ResultsAnalysis
DataRate	CameraRate	NumFrames	NumMarkers	Units	OrigDataRate	OrigDataStartFrame	OrigNumFrames
100.0	100.0	6	51	mm	100.0	1	197
Frame#	Time	r_knee			r_shank_antsup			r_ankle			r_calc			r_5meta			r_toe			L_knee			L_shank_antsup			L_ankle			L_calc			L_5meta			L_toe			r_sh2			r_sh3			r_sh4			L_sh2			L_sh3			r_thigh1			r_thigh2			r_thigh3			r_thigh4			r_thigh5			L_thigh1			L_thigh2			L_thigh3			L_thigh4			r.ASIS			r.PSIS			L.ASIS			L.PSIS			C7			R_Shoulder			L_Shoulder			R_Sternum			L_Sternum			R_humerus			R_elbow_med			R_elbow_lat			R_forearm			R_wrist_radius			R_wrist_ulna			L_humerus			L_elbow_med			L_elbow_lat			L_forearm			L_wrist_radius			L_wrist_ulna			R_HJC			L_HJC			R_HJC_reg			L_HJC_reg			
		X1	Y1	Z1	X2	Y2	Z2	X3	Y3	Z3	X4	Y4	Z4	X5	Y5	Z5	X6	Y6	Z6	X7	Y7	Z7	X8	Y8	Z8	X9	Y9	Z9	X10	Y10	Z10	X11	Y11	Z11	X12	Y12	Z12	X13	Y13	Z13	X14	Y14	Z14	X15	Y15	Z15	X16	Y16	Z16	X17	Y17	Z17	X18	Y18	Z18	X19	Y19	Z19	X20	Y20	Z20	X21	Y21	Z21	X22	Y22	Z22	X23	Y23	Z23	X24	Y24	Z24	X25	Y25	Z25	X26	Y26	Z26	X27	Y27	Z27	X28	Y28	Z28	X29	Y29	Z29	X30	Y30	Z30	X31	Y31	Z31	X32	Y32	Z32	X33	Y33	Z33	X34	Y34	Z34	X35	Y35	Z35	X36	Y36	Z36	X37	Y37	Z37	X38	Y38	Z38	X39	Y39	Z39	X40	Y40	Z40	X41	Y41	Z41	X42	Y42	Z42	X43	Y43	Z43	X44	Y44	Z44	X45	Y45	Z45	X46	Y46	Z46	X47	Y47	Z47	X48	Y48	Z48	X49	Y49	Z49	X50	Y50	Z50	X51	Y51	Z51	

1	0.00000000	-1092.57964	797.92397	-455.99469	-1063.28297	722.96072	-477.91347	-1191.01973	405.69956	-470.60252	-1263.74648	372.06261	-502.63557	-1087.56766	355.85389	-442.76410	-1044.39888	381.93083	-502.20609	-1129.44918	797.40625	-718.88139	-1107.67528	701.52923	-724.17962	-1210.43263	407.60686	-682.30580	-1266.59555	371.82105	-624.08231	-1116.78929	353.23060	-743.48780	-1066.53427	377.82516	-698.31527	-1103.15792	616.44134	-453.47426	-1132.39964	751.75678	-437.88729	-1169.81512	644.44960	-433.39460	-1193.07453	725.90414	-717.05070	-1214.14946	604.72788	-720.58608	-1068.64017	1119.49398	-420.39542	-1058.07758	1005.20434	-433.05151	-1107.80988	978.03976	-396.69273	-1176.52699	1104.26670	-392.01718	-1161.37166	987.66416	-405.05477	-1125.35266	1067.19314	-780.28670	-1100.79470	933.41070	-752.19043	-1233.22572	1051.36867	-734.22652	-1202.95963	914.99967	-721.28514	-1059.32567	1253.82722	-458.61180	-1229.55996	1349.25776	-532.85238	-1065.64238	1232.76638	-706.25052	-1235.15808	1352.03407	-634.87859	-1046.02803	1726.41502	-599.44903	-951.60593	1652.74572	-429.80186	-976.80874	1671.96975	-777.94907	-925.30782	1646.03046	-588.47075	-927.15247	1644.38890	-616.00783	-987.72577	1519.59509	-365.16637	-1131.49206	1351.54888	-394.16507	-1097.51815	1353.30183	-330.61663	-1045.89837	1221.30207	-340.52457	-1030.69576	1089.32344	-358.08174	-1050.97876	1082.19985	-328.38969	-996.11092	1549.61469	-835.83534	-1121.46955	1346.58544	-779.87914	-1082.84233	1350.54219	-845.17183	-1028.34867	1249.71957	-825.22322	-1004.60723	1095.94743	-811.85675	-1027.23386	1091.55007	-835.96749	-1159.23858	1203.02346	-475.07282	-1165.69964	1192.95413	-681.19679	-1150.05288	1194.79689	-489.43640	-1159.03925	1199.25357	-653.21406	
2	0.01000000	-1088.14245	797.56037	-456.77017	-1059.54077	722.13388	-478.96808	-1190.80395	405.90989	-470.78736	-1263.70976	372.27164	-502.70874	-1087.33542	356.09887	-443.26878	-1044.29987	382.14127	-502.94618	-1126.61079	796.85543	-718.82111	-1105.39662	701.23218	-724.74900	-1210.33989	407.69068	-682.43835	-1266.57856	371.94514	-624.27467	-1116.98460	352.99760	-743.52322	-1066.53826	377.53461	-698.52306	-1100.43809	615.91618	-454.44921	-1126.83617	749.30161	-439.62563	-1167.04303	644.93480	-433.54110	-1190.86750	726.06883	-717.40124	-1212.75757	605.02960	-720.85273	-1066.95326	1118.81171	-419.93489	-1055.44733	1005.02811	-433.77751	-1105.19662	977.33402	-396.93991	-1175.07954	1102.61055	-392.21006	-1158.77654	986.25797	-405.59679	-1123.18019	1066.93001	-780.05522	-1098.24270	932.93172	-751.76584	-1231.32528	1050.50008	-734.63870	-1200.48274	914.37205	-722.09596	-1058.42462	1252.80000	-457.98321	-1227.93584	1348.81716	-532.90731	-1064.70229	1231.62978	-706.14194	-1233.28365	1351.76256	-634.95179	-1039.87737	1723.99460	-599.48096	-946.11337	1649.82387	-429.80923	-970.60158	1669.08955	-777.69714	-919.86555	1642.92005	-588.15711	-921.68915	1641.40971	-616.01931	-983.87107	1517.14830	-364.94783	-1129.05628	1350.94407	-393.64473	-1095.17336	1352.09647	-330.18076	-1043.96035	1219.90256	-340.55521	-1028.71476	1087.97297	-358.39346	-1049.24787	1080.88475	-328.91075	-991.19521	1547.15231	-835.65868	-1118.54823	1345.14524	-780.18242	-1079.81676	1348.95136	-845.61127	-1025.57659	1248.10031	-825.68496	-1001.89768	1094.08162	-811.26951	-1024.87165	1089.40376	-834.81102	-1158.56390	1202.42970	-474.88622	-1164.77392	1192.27928	-681.01410	-1149.52699	1193.70831	-489.17732	-1158.12828	1198.44658	-653.31510	
3	0.02000000	-1083.63765	796.94244	-457.95726	-1055.69858	721.26668	-480.09913	-1190.42139	406.10726	-471.16519	-1263.73011	372.40484	-502.53883	-1086.80761	356.25428	-444.20426	-1044.13577	382.25850	-504.02132	-1123.49902	796.36810	-719.14317	-1103.01444	700.55990	-724.98733	-1210.26635	407.75034	-682.51804	-1266.60895	372.02788	-624.41901	-1117.13251	352.81960	-743.71473	-1066.55298	377.26479	-698.71078	-1097.71082	615.48179	-455.39753	-1122.16175	748.68564	-440.72112	-1164.07126	645.45979	-434.06812	-1188.29173	726.14729	-717.65691	-1211.10311	605.26676	-721.17790	-1065.55128	1118.16766	-419.57624	-1052.96713	1004.66278	-433.86483	-1102.50542	976.43336	-397.08311	-1173.62665	1100.75465	-392.53806	-1156.18588	984.66936	-406.20267	-1121.00979	1066.46943	-779.79176	-1095.43487	932.56366	-751.69769	-1229.25136	1049.45787	-734.97239	-1197.80139	913.56694	-722.65931	-1057.88704	1251.56602	-457.97434	-1226.31983	1348.28259	-532.88840	-1063.64350	1230.42541	-705.80648	-1231.46945	1351.41099	-634.77237	-1033.59407	1721.26765	-599.29808	-940.62657	1646.78387	-429.46517	-964.25413	1665.98358	-777.22486	-914.34294	1639.56048	-587.93858	-916.12993	1638.09999	-615.73119	-979.90062	1514.50007	-364.54987	-1126.53265	1349.66446	-393.69963	-1092.92788	1350.63942	-329.84354	-1041.91821	1218.31570	-340.41484	-1026.56318	1086.56400	-358.60194	-1047.37586	1079.33967	-329.35018	-986.05530	1544.49827	-835.59997	-1115.16252	1343.74676	-780.39944	-1076.66507	1347.15060	-846.07212	-1022.72268	1246.27416	-826.11139	-998.98385	1092.28810	-811.08209	-1022.14878	1087.35748	-834.38594	-1158.02465	1201.61008	-474.82529	-1163.93775	1191.61032	-680.96903	-1149.01127	1192.83470	-489.34916	-1157.29629	1197.86832	-653.27025	
4	0.03000000	-1079.07039	796.17265	-459.37860	-1051.63951	720.29831	-481.43696	-1189.66006	406.36008	-471.65320	-1263.51869	372.60592	-501.80935	-1085.77962	356.41539	-445.74823	-1043.82362	382.41352	-505.88078	-1119.91077	795.80245	-719.75009	-1100.28303	699.71824	-725.20877	-1210.16475	407.80233	-682.52768	-1266.68266	372.08807	-624.52869	-1117.22182	352.69945	-744.03930	-1066.56284	377.03681	-698.85500	-1094.84497	615.12659	-456.33170	-1118.16716	749.53903	-441.35067	-1160.69027	645.88219	-434.75170	-1185.27114	726.10509	-717.78680	-1209.14745	605.52491	-721.63167	-1064.29290	1117.42378	-419.05496	-1050.50169	1004.04640	-433.49004	-1099.60040	974.86882	-397.93020	-1172.22338	1098.73050	-392.95905	-1153.59209	982.91666	-406.86721	-1118.83241	1065.81786	-779.34709	-1092.30540	932.21763	-751.81947	-1227.01911	1048.13035	-735.15280	-1194.76039	912.50877	-723.12963	-1057.48733	1250.04767	-458.19102	-1224.72451	1347.57825	-532.70610	-1062.30631	1228.88183	-705.17072	-1229.65748	1350.92053	-634.51350	-1027.11932	1718.19982	-598.88775	-935.06304	1643.58467	-428.84488	-957.78396	1662.50944	-776.64219	-908.69871	1635.81730	-587.64358	-910.44890	1634.37053	-615.18048	-975.78673	1511.53498	-363.89127	-1123.98624	1347.94332	-393.68069	-1090.65239	1348.82363	-329.47383	-1039.76244	1216.41182	-340.20004	-1024.14305	1084.78105	-358.67970	-1045.32491	1077.38935	-329.85424	-980.67115	1541.48901	-835.51235	-1111.35436	1342.14555	-780.45570	-1073.36901	1345.13047	-846.57776	-1019.71198	1244.12005	-826.40276	-995.81182	1090.32231	-811.19917	-1019.01663	1085.30380	-834.44202	-1157.56308	1200.54111	-474.71896	-1163.04445	1190.74197	-680.88377	-1148.43792	1191.85408	-489.68294	-1156.35418	1197.21604	-653.03898	
5	0.04000000	-1074.41903	795.43862	-460.61903	-1047.29574	719.26088	-483.04723	-1188.36814	406.78959	-471.89659	-1262.71185	372.95816	-500.55114	-1084.07669	356.59586	-448.04521	-1043.22527	382.78429	-508.85735	-1115.72928	795.03347	-720.29817	-1097.08070	698.88431	-725.70750	-1209.98774	407.89173	-682.51353	-1266.70035	372.19020	-624.62129	-1117.27771	352.59114	-744.33172	-1066.56438	376.84309	-698.95573	-1091.68354	614.76991	-457.35578	-1113.70026	750.06649	-442.22633	-1156.78437	646.09357	-435.32433	-1181.82074	725.99414	-718.08908	-1206.96056	605.80220	-722.08054	-1062.88008	1116.50567	-418.15638	-1047.76992	1003.23123	-433.31705	-1096.66162	972.77519	-399.53820	-1170.95482	1096.62116	-393.29442	-1150.97621	981.08322	-407.55621	-1116.54553	1065.10599	-778.77235	-1088.87799	931.79632	-751.88135	-1224.71097	1046.52093	-735.33116	-1191.33761	911.18997	-723.81392	-1056.79719	1248.28653	-457.92977	-1223.14614	1346.64952	-532.39153	-1060.74083	1226.87633	-704.33467	-1227.81657	1350.26169	-634.23717	-1020.49090	1714.86513	-598.37172	-929.21143	1639.85785	-428.22533	-951.23665	1658.64447	-776.01427	-902.86965	1631.75953	-586.70391	-904.63881	1630.17475	-614.57077	-971.54580	1508.23391	-363.05824	-1121.34127	1346.09595	-393.29077	-1088.26275	1346.62979	-329.00195	-1037.49403	1214.17538	-339.94818	-1021.46297	1082.54889	-358.68743	-1043.15758	1074.92315	-330.71842	-975.15271	1538.04170	-835.12808	-1107.67894	1340.08236	-780.68408	-1069.94344	1342.86249	-847.04762	-1016.48578	1241.67762	-826.56225	-992.42813	1087.80100	-811.13695	-1015.55591	1083.06331	-834.30817	-1157.00957	1199.30060	-474.32748	-1161.98277	1189.51339	-680.50661	-1147.70705	1190.33924	-489.64951	-1155.18174	1196.11940	-652.63578	
6	0.05000000	-1069.59607	794.67198	-461.62665	-1042.67332	718.25879	-484.92148	-1186.43629	407.22408	-472.04293	-1261.22846	373.32565	-499.31879	-1081.62453	356.52547	-451.39781	-1042.18749	383.27886	-512.96585	-1111.00009	794.10845	-720.77348	-1093.53306	697.84511	-726.25715	-1209.74360	408.01787	-682.53498	-1266.60626	372.34997	-624.68483	-1117.31737	352.46453	-744.47711	-1066.55842	376.64344	-699.04831	-1088.03649	614.30441	-458.71598	-1108.26952	749.85732	-443.43012	-1152.35877	646.23527	-435.86223	-1177.92233	725.88935	-718.80429	-1204.51631	605.95873	-722.37186	-1061.37104	1115.43391	-417.09731	-1044.82543	1002.29898	-433.52180	-1094.01585	970.67132	-400.77652	-1169.82172	1094.33716	-393.50701	-1148.44190	979.09903	-408.36216	-1114.08228	1064.41202	-778.41959	-1085.14349	931.26381	-751.92607	-1222.31557	1044.64005	-735.67359	-1187.62678	909.52860	-724.57120	-1055.78864	1246.37145	-457.17628	-1221.57901	1345.49935	-531.99570	-1058.97656	1224.91116	-703.49730	-1226.01297	1349.41115	-633.67379	-1013.75112	1711.19203	-597.81140	-922.99816	1635.28337	-427.64048	-944.58360	1654.40495	-775.20221	-896.84988	1627.42237	-585.02927	-898.67769	1625.45222	-613.87470	-967.16256	1504.56054	-362.19912	-1118.43963	1343.93854	-392.97762	-1085.82348	1344.11333	-328.35837	-1035.07881	1211.64790	-339.53337	-1018.58487	1080.14739	-358.70617	-1040.85043	1072.03117	-331.83809	-969.53859	1534.19711	-834.44395	-1104.53399	1337.52283	-781.39735	-1066.36317	1340.22018	-847.38933	-1013.06090	1239.01002	-826.69959	-988.82490	1084.75802	-810.64434	-1011.89229	1080.44275	-833.79169	-1156.21267	1197.85425	-473.77262	-1160.65752	1188.17960	-679.96986	-1146.72473	1188.50809	-489.20437	-1153.82875	1194.77735	-652.12941	
